<svg width="40" height="40" viewBox="0 0 40 40" fill="none" xmlns="http://www.w3.org/2000/svg">
<rect x="0.5" y="0.5" width="39" height="39" rx="19.5" stroke="#004DA2"/>
<g clip-path="url(#clip0_33_1872)">
<path d="M19.2021 12.9688C18.7429 12.2501 18.1101 11.6586 17.362 11.249C16.6139 10.8394 15.7747 10.6248 14.9219 10.625C14.5425 11.2809 14.315 12.0135 14.256 12.7689C14.197 13.5244 14.3081 14.2834 14.5811 14.9902C14.0466 15.7772 13.7574 16.705 13.75 17.6562V18.4375C13.75 19.6807 14.2439 20.873 15.1229 21.7521C16.002 22.6311 17.1943 23.125 18.4375 23.125H23.125C24.3682 23.125 25.5605 22.6311 26.4396 21.7521C27.3186 20.873 27.8125 19.6807 27.8125 18.4375V17.6562C27.8051 16.705 27.5159 15.7772 26.9814 14.9902C27.2544 14.2834 27.3655 13.5244 27.3065 12.7689C27.2475 12.0135 27.02 11.2809 26.6406 10.625C25.7878 10.6248 24.9486 10.8394 24.2005 11.249C23.4524 11.6586 22.8196 12.2501 22.3604 12.9688H19.2021Z" stroke="white" stroke-opacity="0.5" stroke-linecap="round" stroke-linejoin="round"/>
<path d="M17.6562 30.1562V26.25C17.6562 25.4212 17.9855 24.6263 18.5715 24.0403C19.1576 23.4542 19.9524 23.125 20.7812 23.125C21.6101 23.125 22.4049 23.4542 22.991 24.0403C23.577 24.6263 23.9062 25.4212 23.9062 26.25V30.1562" stroke="white" stroke-opacity="0.5" stroke-linecap="round" stroke-linejoin="round"/>
<path d="M17.6562 27.8125H14.5312C13.7024 27.8125 12.9076 27.4833 12.3215 26.8972C11.7355 26.3112 11.4062 25.5163 11.4062 24.6875C11.4062 23.8587 11.077 23.0638 10.491 22.4778C9.90491 21.8917 9.11005 21.5625 8.28125 21.5625" stroke="white" stroke-opacity="0.5" stroke-linecap="round" stroke-linejoin="round"/>
</g>
<defs>
<clipPath id="clip0_33_1872">
<rect width="25" height="25" fill="white" transform="translate(7.5 7.5)"/>
</clipPath>
</defs>
</svg>
