<svg width="30" height="30" viewBox="0 0 30 30" fill="none" xmlns="http://www.w3.org/2000/svg">
<path fill-rule="evenodd" clip-rule="evenodd" d="M17.7114 7H11.545C9.03886 7 7 9.03886 7 11.545V17.7114C7 20.2175 9.03886 22.2564 11.545 22.2564H17.7114C20.2175 22.2564 22.2564 20.2175 22.2564 17.7114V11.545C22.2564 9.03886 20.2175 7 17.7114 7ZM20.722 17.7113C20.722 19.3738 19.3743 20.7215 17.7118 20.7215H11.5453C9.88287 20.7215 8.53516 19.3738 8.53516 17.7113V11.5448C8.53516 9.88235 9.88287 8.53467 11.5453 8.53467H17.7118C19.3743 8.53467 20.722 9.88235 20.722 11.5448V17.7113ZM10.6826 14.628C10.6826 12.4522 12.4527 10.6821 14.6285 10.6821C16.8042 10.6821 18.5743 12.4522 18.5743 14.628C18.5743 16.8037 16.8042 18.5738 14.6285 18.5738C12.4527 18.5738 10.6826 16.8037 10.6826 14.628ZM14.6288 17.0394C13.2972 17.0394 12.2178 15.9599 12.2178 14.6283C12.2178 13.2967 13.2973 12.2173 14.6288 12.2173C15.9604 12.2173 17.0399 13.2967 17.0399 14.6283C17.0399 15.9599 15.9604 17.0394 14.6288 17.0394ZM18.5822 11.6576C19.1044 11.6576 19.5277 11.2343 19.5277 10.7121C19.5277 10.1899 19.1044 9.7666 18.5822 9.7666C18.06 9.7666 17.6367 10.1899 17.6367 10.7121C17.6367 11.2343 18.06 11.6576 18.5822 11.6576Z" fill="white"/>
</svg>
