<svg width="30" height="30" viewBox="0 0 30 30" fill="none" xmlns="http://www.w3.org/2000/svg">
<path fill-rule="evenodd" clip-rule="evenodd" d="M22.3462 9.94231C22.8196 10.4848 22.9867 11.7127 22.9867 11.7127C22.9867 11.7127 23.1538 13.169 23.1538 14.6253V15.9674C23.1538 17.3951 22.9867 18.8514 22.9867 18.8514C22.9867 18.8514 22.8196 20.0793 22.3462 20.6218C21.7634 21.2735 21.1052 21.3313 20.7786 21.36C20.7617 21.3614 20.7458 21.3628 20.7308 21.3642C18.4748 21.5641 15.0769 21.5641 15.0769 21.5641C15.0769 21.5641 10.8713 21.5355 9.5902 21.3928C9.52212 21.3767 9.43829 21.3646 9.34296 21.3509C8.93129 21.2916 8.30522 21.2015 7.80769 20.6218C7.33425 20.0793 7.16712 18.8514 7.16712 18.8514C7.16712 18.8514 7 17.4237 7 15.9674V14.6253C7 13.169 7.16712 11.7127 7.16712 11.7127C7.16712 11.7127 7.30636 10.4849 7.80769 9.94231C8.39041 9.29058 9.04868 9.23281 9.37528 9.20415C9.39211 9.20267 9.40806 9.20127 9.42308 9.19987C11.679 9.02856 15.0769 9 15.0769 9C15.0769 9 18.4748 9.02856 20.7308 9.19987C20.754 9.20204 20.7795 9.20405 20.8071 9.20621C21.1424 9.23255 21.7799 9.28264 22.3462 9.94231ZM13.127 18.5948V12.3984L18.4187 15.568L13.127 18.5948Z" fill="white"/>
</svg>
