<svg width="284" height="50" viewBox="0 0 284 50" fill="none" xmlns="http://www.w3.org/2000/svg">
<path fill-rule="evenodd" clip-rule="evenodd" d="M34.6501 1.26059C33.2075 0.830129 31.7408 0.642197 30.3256 0.77165C27.8505 0.998056 25.5975 2.19573 24.0464 4.59365C21.035 9.24902 21.882 14.5163 24.8102 19.2369C25.9218 21.029 27.3459 22.7701 29.0102 24.4147C27.311 26.7529 25.6552 28.8919 24.5592 30.2731C24.4289 30.1002 24.2932 29.9247 24.1541 29.7474C23.7199 29.1941 23.2113 28.5738 22.668 27.9113L22.6666 27.9096C22.4536 27.6499 22.2353 27.3837 22.0142 27.1125C21.5175 26.5036 20.9992 25.861 20.4751 25.1896C20.4859 21.3554 20.2025 17.538 19.6462 14.1645C19.2692 11.8784 18.7628 9.77078 18.1252 7.9879C17.4947 6.2246 16.7036 4.68586 15.7067 3.62105C15.4455 3.34198 15.0724 3.19546 14.6911 3.22216C14.3097 3.24885 13.9607 3.44592 13.7409 3.75866C9.4709 9.83368 11.7482 16.4654 14.9274 21.6971C15.8658 23.2414 16.9062 24.7047 17.928 26.0456C17.9128 27.0724 17.8757 28.0988 17.816 29.1157C17.5232 34.104 16.6934 38.7652 15.3194 42.1027C13.9031 45.543 12.1721 47.021 10.3278 46.9311C3.78996 46.5334 0.851453 31.6763 0.19943 24.2975C-0.15539 28.2548 -0.138457 34.2466 1.10445 39.3535C1.72532 41.9046 2.67503 44.3329 4.11879 46.1765C5.58973 48.0549 7.5925 49.3405 10.2042 49.4677C13.8035 49.6431 16.1845 46.6723 17.6678 43.0695C19.1933 39.364 20.0505 34.3879 20.3512 29.2645C20.353 29.2335 20.3548 29.2025 20.3566 29.1715C20.3579 29.1484 20.3593 29.1254 20.3606 29.1023C20.4839 29.2529 20.6047 29.4003 20.7229 29.5444C21.2581 30.1971 21.7399 30.7847 22.1563 31.3153C22.5448 31.8104 22.8441 32.216 23.0575 32.5407C22.4195 34.2414 20.6005 43.4985 25.971 43.0695C31.2261 42.6497 27.553 35.5631 25.971 32.5741C26.9992 31.2985 28.9052 28.868 30.8912 26.1458C31.9651 27.0681 33.1129 27.9515 34.32 28.7868C34.3486 29.1718 34.377 29.5589 34.4053 29.9474C34.9356 37.25 35.3747 44.9074 35.219 48.3288C35.1917 48.9304 35.5905 49.4684 36.1741 49.6171C36.7576 49.7657 37.3653 49.4841 37.629 48.9427C39.5544 44.9908 41.735 40.3589 43.5406 35.5631C44.9212 35.9983 47.373 39.4949 46.1354 50C46.5279 48.3408 47.3602 44.2589 47.4937 41.3255C47.5814 39.3985 47.2844 37.154 46.1361 34.9809C45.7218 34.1971 45.2024 33.4333 44.5624 32.7046C44.5711 32.6789 44.5797 32.6532 44.5884 32.6275C46.5388 26.8263 47.8142 20.808 47.1964 15.5238C46.6386 10.7532 43.4146 6.39653 39.5392 3.67903C39.5071 3.30095 39.457 2.94257 39.3861 2.61085C39.2619 2.02953 39.0516 1.41998 38.6699 0.928708C38.2533 0.392602 37.6347 0.0107288 36.8516 0.000220533C36.0768 -0.010175 35.4575 0.348199 35.0139 0.811056C34.8809 0.949832 34.7601 1.10101 34.6501 1.26059ZM33.6953 3.70514C32.2562 3.1549 28.8108 2.73164 26.5421 5.44052C23.7062 8.82663 24.6374 16.8686 30.5208 22.3287C31.3673 21.042 32.8487 18.8015 33.4836 17.8421C33.0462 15.1615 32.4763 8.58114 33.6953 3.70514ZM39.4824 6.84973C39.194 9.91847 38.3274 13.5333 37.365 15.8144C37.0357 16.595 36.5783 17.4815 36.0343 18.43C36.2447 20.862 36.505 24.0049 36.7601 27.3662C37.7666 28.0211 38.8165 28.6436 39.9019 29.2275L42.5096 30.818C44.2185 25.4839 45.1941 20.2679 44.674 15.8187C44.2828 12.4727 42.2172 9.21529 39.4824 6.84973ZM38.7559 31.4939C39.9149 32.0675 40.8639 32.7036 41.6395 33.3756C40.4711 36.6299 39.0944 39.8443 37.7081 42.8594C37.576 39.2556 37.2993 34.8052 36.9912 30.499C37.5577 30.835 38.1338 31.1604 38.7181 31.4744L38.7253 31.4782L38.7317 31.4816L38.7369 31.4843L38.7435 31.4876L38.7489 31.4904L38.7559 31.4939ZM24.849 34.9843C25.6878 36.0281 27.1539 39.494 25.9495 40.4021C24.7451 41.3102 23.8332 37.6086 24.849 34.9843ZM33.7885 22.0153C33.878 23.1011 33.9713 24.2565 34.0655 25.4564C33.4813 25.0053 32.9177 24.5435 32.3765 24.0728C32.8553 23.3913 33.33 22.7012 33.7885 22.0153ZM36.957 6.57957C37.0064 6.04595 37.0351 5.54529 37.043 5.08597C36.8544 4.97389 36.6643 4.86613 36.4729 4.7629C36.3382 4.6902 36.2033 4.62004 36.0684 4.55243C35.9269 5.18368 35.8128 5.91291 35.7261 6.70445C35.4662 9.07736 35.4802 11.7305 35.5784 13.3119C36.2084 11.3486 36.7504 8.81011 36.957 6.57957ZM14.8712 6.84682C13.3492 9.33359 13.5719 16.2957 17.8556 21.574C17.6786 13.1145 15.7922 8.23109 14.8712 6.84682Z" fill="white"/>
<path d="M265.172 34.0248V21.0388H266.989V23.5585L266.577 23.4615C266.9 22.6217 267.425 21.9594 268.152 21.4749C268.894 20.9903 269.751 20.748 270.72 20.748C271.64 20.748 272.464 20.958 273.191 21.378C273.934 21.7979 274.515 22.3794 274.935 23.1224C275.371 23.8492 275.589 24.6729 275.589 25.5936V34.0248H273.772V26.2962C273.772 25.5047 273.627 24.8344 273.336 24.2853C273.062 23.7361 272.666 23.3162 272.149 23.0254C271.648 22.7186 271.067 22.5651 270.405 22.5651C269.742 22.5651 269.153 22.7186 268.636 23.0254C268.119 23.3162 267.715 23.7442 267.425 24.3095C267.134 24.8587 266.989 25.5209 266.989 26.2962V34.0248H265.172Z" fill="white"/>
<path d="M256.177 34.3155C254.966 34.3155 253.868 34.0248 252.882 33.4433C251.913 32.8457 251.146 32.03 250.581 30.9963C250.016 29.9626 249.733 28.7916 249.733 27.4833C249.733 26.175 250.007 25.0202 250.557 24.0188C251.106 23.0012 251.849 22.2017 252.786 21.6202C253.739 21.0388 254.805 20.748 255.984 20.748C256.92 20.748 257.752 20.9257 258.479 21.2811C259.222 21.6202 259.852 22.0886 260.369 22.6863C260.886 23.2677 261.281 23.9299 261.556 24.6729C261.831 25.3998 261.968 26.1508 261.968 26.9261C261.968 27.0876 261.96 27.2734 261.944 27.4833C261.927 27.6771 261.903 27.879 261.871 28.089H250.896V26.3931H260.829L259.957 27.1199C260.102 26.2316 259.997 25.4401 259.642 24.7456C259.303 24.0349 258.81 23.4777 258.164 23.0739C257.518 22.654 256.791 22.444 255.984 22.444C255.176 22.444 254.425 22.654 253.73 23.0739C253.052 23.4938 252.519 24.0834 252.131 24.8425C251.744 25.5855 251.59 26.4738 251.671 27.5076C251.59 28.5413 251.752 29.4458 252.156 30.221C252.576 30.9802 253.141 31.5697 253.852 31.9897C254.578 32.4096 255.354 32.6196 256.177 32.6196C257.13 32.6196 257.93 32.3935 258.576 31.9412C259.222 31.489 259.747 30.9236 260.151 30.2453L261.701 31.069C261.443 31.6505 261.047 32.1916 260.514 32.6923C259.981 33.1768 259.343 33.5725 258.6 33.8794C257.873 34.1701 257.066 34.3155 256.177 34.3155Z" fill="white"/>
<path d="M242.445 34.3155C241.202 34.3155 240.111 34.0006 239.175 33.3706C238.238 32.7407 237.559 31.8847 237.14 30.8025L238.666 30.0757C239.037 30.8671 239.554 31.497 240.216 31.9654C240.895 32.4338 241.638 32.668 242.445 32.668C243.221 32.668 243.875 32.4823 244.408 32.1108C244.941 31.7232 245.207 31.2225 245.207 30.6087C245.207 30.1564 245.078 29.8011 244.82 29.5427C244.561 29.2681 244.262 29.0581 243.923 28.9128C243.584 28.7674 243.285 28.6624 243.027 28.5978L241.161 28.0648C239.966 27.7256 239.102 27.2491 238.569 26.6354C238.036 26.0216 237.769 25.3109 237.769 24.5033C237.769 23.7442 237.963 23.082 238.351 22.5167C238.739 21.9514 239.263 21.5153 239.926 21.2084C240.588 20.9015 241.323 20.748 242.13 20.748C243.229 20.748 244.222 21.0388 245.11 21.6202C246.015 22.1856 246.653 22.977 247.024 23.9945L245.474 24.7214C245.151 23.9945 244.682 23.4292 244.069 23.0254C243.471 22.6055 242.801 22.3955 242.058 22.3955C241.331 22.3955 240.749 22.5813 240.313 22.9528C239.877 23.3243 239.659 23.7927 239.659 24.358C239.659 24.7941 239.772 25.1413 239.998 25.3998C240.225 25.6582 240.483 25.852 240.774 25.9812C241.081 26.1104 241.347 26.2073 241.573 26.2719L243.729 26.9019C244.779 27.2087 245.595 27.6852 246.176 28.3313C246.774 28.9774 247.073 29.7365 247.073 30.6087C247.073 31.3194 246.871 31.9574 246.467 32.5227C246.08 33.088 245.538 33.5322 244.844 33.8552C244.149 34.1621 243.35 34.3155 242.445 34.3155Z" fill="white"/>
<path d="M232.403 34.0248V15.6844H234.22V34.0248H232.403Z" fill="white"/>
<path d="M219.903 34.3155C218.643 34.3155 217.464 34.0894 216.366 33.6371C215.284 33.1687 214.331 32.5226 213.507 31.6989C212.683 30.859 212.037 29.8738 211.569 28.7431C211.1 27.5964 210.866 26.3446 210.866 24.9879C210.866 23.6311 211.1 22.3874 211.569 21.2568C212.037 20.11 212.683 19.1248 213.507 18.301C214.331 17.4611 215.284 16.8151 216.366 16.3628C217.464 15.9106 218.643 15.6844 219.903 15.6844C221.163 15.6844 222.334 15.9186 223.416 16.387C224.514 16.8393 225.475 17.4854 226.299 18.3253C227.123 19.149 227.769 20.1262 228.237 21.2568C228.706 22.3874 228.94 23.6311 228.94 24.9879C228.94 26.3446 228.706 27.5964 228.237 28.7431C227.769 29.8738 227.123 30.859 226.299 31.6989C225.475 32.5226 224.514 33.1687 223.416 33.6371C222.334 34.0894 221.163 34.3155 219.903 34.3155ZM219.903 32.4984C220.953 32.4984 221.906 32.3046 222.762 31.917C223.634 31.5293 224.385 30.9882 225.015 30.2937C225.645 29.5992 226.129 28.7997 226.469 27.8952C226.824 26.9907 227.002 26.0216 227.002 24.9879C227.002 23.9703 226.824 23.0093 226.469 22.1048C226.129 21.2003 225.645 20.4008 225.015 19.7062C224.385 19.0117 223.634 18.4706 222.762 18.083C221.906 17.6953 220.953 17.5015 219.903 17.5015C218.853 17.5015 217.892 17.6953 217.02 18.083C216.164 18.4706 215.421 19.0117 214.791 19.7062C214.161 20.4008 213.668 21.2003 213.313 22.1048C212.974 23.0093 212.804 23.9703 212.804 24.9879C212.804 26.0216 212.974 26.9907 213.313 27.8952C213.668 28.7997 214.161 29.5992 214.791 30.2937C215.421 30.9882 216.172 31.5293 217.044 31.917C217.916 32.3046 218.869 32.4984 219.903 32.4984Z" fill="white"/>
<path d="M196.719 34.3155C195.508 34.3155 194.418 34.0248 193.448 33.4433C192.479 32.8457 191.712 32.0381 191.147 31.0205C190.598 29.9868 190.323 28.8239 190.323 27.5318C190.323 26.2235 190.598 25.0605 191.147 24.043C191.712 23.0254 192.471 22.2259 193.424 21.6444C194.393 21.0468 195.492 20.748 196.719 20.748C197.834 20.748 198.827 20.9903 199.699 21.4749C200.571 21.9594 201.258 22.6135 201.759 23.4373L201.468 23.9461V15.6844H203.285V34.0248H201.468V31.1174L201.759 31.3839C201.306 32.3207 200.628 33.0476 199.723 33.5644C198.835 34.0651 197.834 34.3155 196.719 34.3155ZM196.816 32.4984C197.688 32.4984 198.472 32.2804 199.166 31.8443C199.877 31.4082 200.434 30.8186 200.838 30.0757C201.258 29.3165 201.468 28.4686 201.468 27.5318C201.468 26.595 201.258 25.7551 200.838 25.0121C200.434 24.253 199.877 23.6553 199.166 23.2192C198.472 22.7831 197.688 22.5651 196.816 22.5651C195.96 22.5651 195.185 22.7831 194.49 23.2192C193.796 23.6553 193.247 24.2449 192.843 24.9879C192.455 25.7308 192.261 26.5788 192.261 27.5318C192.261 28.4686 192.455 29.3165 192.843 30.0757C193.247 30.8186 193.788 31.4082 194.466 31.8443C195.161 32.2804 195.944 32.4984 196.816 32.4984Z" fill="white"/>
<path d="M176.968 34.0248V21.0388H178.785V23.5585L178.373 23.4615C178.696 22.6217 179.221 21.9594 179.948 21.4749C180.691 20.9903 181.547 20.748 182.516 20.748C183.437 20.748 184.26 20.958 184.987 21.378C185.73 21.7979 186.312 22.3794 186.732 23.1224C187.168 23.8492 187.386 24.6729 187.386 25.5936V34.0248H185.569V26.2962C185.569 25.5047 185.423 24.8344 185.133 24.2853C184.858 23.7361 184.462 23.3162 183.945 23.0254C183.445 22.7186 182.863 22.5651 182.201 22.5651C181.539 22.5651 180.949 22.7186 180.432 23.0254C179.916 23.3162 179.512 23.7442 179.221 24.3095C178.93 24.8587 178.785 25.5209 178.785 26.2962V34.0248H176.968Z" fill="white"/>
<path d="M166.858 34.3155C166.035 34.3155 165.3 34.1621 164.654 33.8552C164.008 33.5322 163.499 33.0961 163.127 32.5469C162.756 31.9977 162.57 31.3678 162.57 30.6571C162.57 29.9788 162.716 29.365 163.006 28.8158C163.297 28.2505 163.749 27.7741 164.363 27.3864C164.977 26.9988 165.76 26.7242 166.713 26.5627L171.801 25.7147V27.3622L167.149 28.1375C166.212 28.299 165.534 28.5978 165.114 29.0339C164.71 29.47 164.508 29.9868 164.508 30.5845C164.508 31.1659 164.735 31.6586 165.187 32.0623C165.655 32.4661 166.253 32.668 166.98 32.668C167.868 32.668 168.643 32.4823 169.305 32.1108C169.968 31.7232 170.485 31.2063 170.856 30.5602C171.228 29.9142 171.413 29.1954 171.413 28.404V25.109C171.413 24.3337 171.131 23.7038 170.565 23.2193C170 22.7347 169.265 22.4924 168.361 22.4924C167.569 22.4924 166.875 22.6943 166.277 23.0981C165.679 23.4858 165.235 23.9945 164.944 24.6245L163.297 23.728C163.539 23.1789 163.919 22.6782 164.436 22.2259C164.969 21.7737 165.574 21.4183 166.253 21.1599C166.931 20.8853 167.634 20.748 168.361 20.748C169.314 20.748 170.153 20.9338 170.88 21.3053C171.623 21.6768 172.197 22.1936 172.6 22.8559C173.02 23.5019 173.23 24.253 173.23 25.109V34.0248H171.413V31.4324L171.68 31.6989C171.454 32.1835 171.098 32.6277 170.614 33.0315C170.145 33.4191 169.588 33.7341 168.942 33.9763C168.312 34.2025 167.618 34.3155 166.858 34.3155Z" fill="white"/>
<path d="M157.567 34.0248V15.6844H159.384V34.0248H157.567Z" fill="white"/>
<path d="M152.03 34.0248V15.6844H153.847V34.0248H152.03Z" fill="white"/>
<path d="M143.036 34.3155C141.825 34.3155 140.727 34.0248 139.741 33.4433C138.772 32.8457 138.005 32.03 137.44 30.9963C136.874 29.9626 136.592 28.7916 136.592 27.4833C136.592 26.175 136.866 25.0202 137.416 24.0188C137.965 23.0012 138.708 22.2017 139.644 21.6202C140.597 21.0388 141.663 20.748 142.843 20.748C143.779 20.748 144.611 20.9257 145.338 21.2811C146.081 21.6202 146.711 22.0886 147.228 22.6863C147.745 23.2677 148.14 23.9299 148.415 24.6729C148.689 25.3998 148.827 26.1508 148.827 26.9261C148.827 27.0876 148.819 27.2734 148.803 27.4833C148.786 27.6771 148.762 27.879 148.73 28.089H137.755V26.3931H147.688L146.816 27.1199C146.961 26.2316 146.856 25.4401 146.501 24.7456C146.162 24.0349 145.669 23.4777 145.023 23.0739C144.377 22.654 143.65 22.444 142.843 22.444C142.035 22.444 141.284 22.654 140.589 23.0739C139.911 23.4938 139.378 24.0834 138.99 24.8425C138.603 25.5855 138.449 26.4738 138.53 27.5076C138.449 28.5413 138.611 29.4458 139.015 30.221C139.435 30.9802 140 31.5697 140.71 31.9897C141.437 32.4096 142.213 32.6196 143.036 32.6196C143.989 32.6196 144.789 32.3935 145.435 31.9412C146.081 31.489 146.606 30.9236 147.01 30.2453L148.56 31.069C148.302 31.6505 147.906 32.1916 147.373 32.6923C146.84 33.1768 146.202 33.5725 145.459 33.8794C144.732 34.1701 143.925 34.3155 143.036 34.3155Z" fill="white"/>
<path d="M119.552 34.0248V15.9752H121.49V24.0915H131.181V15.9752H133.119V34.0248H131.181V25.9085H121.49V34.0248H119.552Z" fill="white"/>
<path d="M101.895 34.0248V15.6844H103.712V28.5251L102.937 28.404L110.23 21.0388H112.58L107.492 26.2477L113.04 34.0248H110.86L105.651 26.8292L106.814 26.9261L103.107 30.754L103.712 29.2519V34.0248H101.895Z" fill="white"/>
<path d="M96.3589 34.0248V21.0388H98.176V34.0248H96.3589ZM96.3589 18.6403V15.9752H98.176V18.6403H96.3589Z" fill="white"/>
<path d="M86.2497 34.3155C85.4259 34.3155 84.691 34.1621 84.0449 33.8552C83.3989 33.5322 82.8901 33.0961 82.5186 32.5469C82.1471 31.9977 81.9614 31.3678 81.9614 30.6571C81.9614 29.9788 82.1067 29.365 82.3975 28.8158C82.6882 28.2505 83.1404 27.7741 83.7542 27.3864C84.368 26.9988 85.1513 26.7242 86.1043 26.5627L91.1921 25.7147V27.3622L86.5404 28.1375C85.6036 28.299 84.9252 28.5978 84.5053 29.0339C84.1015 29.47 83.8996 29.9868 83.8996 30.5845C83.8996 31.1659 84.1257 31.6586 84.5779 32.0623C85.0463 32.4661 85.644 32.668 86.3708 32.668C87.2591 32.668 88.0344 32.4823 88.6966 32.1108C89.3589 31.7232 89.8757 31.2063 90.2472 30.5602C90.6187 29.9142 90.8044 29.1954 90.8044 28.404V25.109C90.8044 24.3337 90.5218 23.7038 89.9565 23.2193C89.3912 22.7347 88.6563 22.4924 87.7518 22.4924C86.9603 22.4924 86.2658 22.6943 85.6682 23.0981C85.0706 23.4858 84.6264 23.9945 84.3357 24.6245L82.6882 23.728C82.9305 23.1789 83.31 22.6782 83.8269 22.2259C84.3599 21.7737 84.9656 21.4183 85.644 21.1599C86.3223 20.8853 87.0249 20.748 87.7518 20.748C88.7047 20.748 89.5446 20.9338 90.2714 21.3053C91.0144 21.6768 91.5878 22.1936 91.9916 22.8559C92.4115 23.5019 92.6215 24.253 92.6215 25.109V34.0248H90.8044V31.4324L91.071 31.6989C90.8448 32.1835 90.4895 32.6277 90.0049 33.0315C89.5365 33.4191 88.9793 33.7341 88.3332 33.9763C87.7033 34.2025 87.0088 34.3155 86.2497 34.3155Z" fill="white"/>
<path d="M62.5081 34.0248V15.9752H64.204L70.9877 25.8116H70.0428L76.8024 15.9752H78.4983V34.0248H76.5601V18.5918L77.19 18.8341L70.5516 28.4524H70.4547L63.8406 18.8341L64.4463 18.5918V34.0248H62.5081Z" fill="white"/>
</svg>
