<svg width="20" height="20" viewBox="0 0 28 28" fill="none" xmlns="http://www.w3.org/2000/svg">
<path d="M16.3335 3.5V8.16667C16.3335 8.47609 16.4564 8.77283 16.6752 8.99162C16.894 9.21042 17.1907 9.33333 17.5002 9.33333H22.1668" stroke="white" stroke-width="2.33333" stroke-linecap="round" stroke-linejoin="round"/>
<path d="M19.8335 24.5H8.16683C7.54799 24.5 6.9545 24.2542 6.51691 23.8166C6.07933 23.379 5.8335 22.7855 5.8335 22.1667V5.83333C5.8335 5.21449 6.07933 4.621 6.51691 4.18342C6.9545 3.74583 7.54799 3.5 8.16683 3.5H16.3335L22.1668 9.33333V22.1667C22.1668 22.7855 21.921 23.379 21.4834 23.8166C21.0458 24.2542 20.4523 24.5 19.8335 24.5Z" stroke="white" stroke-width="2.33333" stroke-linecap="round" stroke-linejoin="round"/>
<path d="M12.8335 14.5833C12.8335 14.1191 12.6491 13.674 12.3209 13.3458C11.9927 13.0176 11.5476 12.8333 11.0835 12.8333C10.6194 12.8333 10.1742 13.0176 9.84606 13.3458C9.51787 13.674 9.3335 14.1191 9.3335 14.5833V18.0833C9.3335 18.5474 9.51787 18.9925 9.84606 19.3207C10.1742 19.6489 10.6194 19.8333 11.0835 19.8333C11.5476 19.8333 11.9927 19.6489 12.3209 19.3207C12.6491 18.9925 12.8335 18.5474 12.8335 18.0833M15.1668 12.8333L16.9168 19.8333L18.6668 12.8333" stroke="white" stroke-width="2.33333" stroke-linecap="round" stroke-linejoin="round"/>
</svg>
